<svg width="41" height="40" viewBox="0 0 41 40" fill="none" xmlns="http://www.w3.org/2000/svg">
<path d="M4.0835 13.6333C4.0835 11.7979 4.0835 10.8802 4.43501 10.1767C4.75766 9.53094 5.28119 9.00741 5.9269 8.68477C6.6304 8.33325 7.5481 8.33325 9.3835 8.33325H31.2835C33.1189 8.33325 34.0366 8.33325 34.7401 8.68477C35.3858 9.00741 35.9093 9.53094 36.232 10.1767C36.5835 10.8802 36.5835 11.7979 36.5835 13.6333V26.3666C36.5835 28.202 36.5835 29.1197 36.232 29.8232C35.9093 30.4689 35.3858 30.9924 34.7401 31.3151C34.0366 31.6666 33.1189 31.6666 31.2835 31.6666H9.3835C7.5481 31.6666 6.6304 31.6666 5.9269 31.3151C5.28119 30.9924 4.75766 30.4689 4.43501 29.8232C4.0835 29.1197 4.0835 28.202 4.0835 26.3666V13.6333Z" fill="url(#paint0_linear_6679_20259)"/>
<path fill-rule="evenodd" clip-rule="evenodd" d="M7.41675 27.1026C7.41675 26.6317 7.79847 26.25 8.26935 26.25H16.1903C16.6612 26.25 17.0429 26.6317 17.0429 27.1026C17.0429 27.5735 16.6612 27.9552 16.1903 27.9552H8.26935C7.79847 27.9552 7.41675 27.5735 7.41675 27.1026Z" fill="url(#paint1_linear_6679_20259)"/>
<path fill-rule="evenodd" clip-rule="evenodd" d="M4.43501 10.1767C4.0835 10.8802 4.0835 11.7979 4.0835 13.6333V17.9166H22.0357C22.2075 17.5877 22.5596 17.3617 22.9581 17.3617H22.9585C23.3711 17.3456 23.6661 17.3845 23.8312 17.4731C23.8885 17.504 23.9453 17.5492 24.0026 17.6083L24.6175 17.2659L24.4935 14.574L24.4935 14.5723C24.4792 14.1868 24.4552 13.5427 24.8748 13.1079C25.1299 12.8425 25.4951 12.7083 25.9592 12.7083C26.409 12.7083 26.7666 12.843 27.0225 13.1088C27.4101 13.5111 27.4432 14.0755 27.4244 14.578L27.3009 17.2659L27.9163 17.6087C27.9731 17.5487 28.0308 17.5035 28.089 17.4727C28.2519 17.3849 28.5473 17.3469 28.9447 17.3612C29.354 17.3612 29.7093 17.5875 29.8819 17.9166H36.5835V13.6333C36.5835 11.7979 36.5835 10.8802 36.232 10.1767C35.9093 9.53094 35.3858 9.00741 34.7401 8.68477C34.0366 8.33325 33.1189 8.33325 31.2835 8.33325H9.3835C7.5481 8.33325 6.6304 8.33325 5.9269 8.68477C5.28119 9.00741 4.75766 9.53094 4.43501 10.1767Z" fill="url(#paint2_linear_6679_20259)"/>
<path d="M25.9594 12.7104C26.1558 12.7016 26.3519 12.7342 26.5349 12.8059C26.718 12.8777 26.8839 12.9871 27.0219 13.1271C27.1873 13.3313 27.3095 13.5669 27.3811 13.8198C27.4527 14.0726 27.4723 14.3373 27.4386 14.5979L27.3136 17.2854L27.9303 17.6271C27.98 17.5729 28.0375 17.5265 28.1011 17.4896C28.3231 17.4003 28.5623 17.3619 28.8011 17.3771H28.9594C29.231 17.3726 29.4933 17.4756 29.6892 17.6637C29.8851 17.8518 29.9987 18.1097 30.0053 18.3812V18.7979L31.2011 19.4646C31.4417 19.6001 31.6423 19.7966 31.7828 20.0343C31.9232 20.2721 31.9985 20.5426 32.0011 20.8187C32.0072 20.9594 31.9806 21.0995 31.9235 21.2282C31.8664 21.3568 31.7803 21.4706 31.6719 21.5604C31.5135 21.6793 31.32 21.7423 31.1219 21.7396C31.0179 21.7375 30.9145 21.7235 30.8136 21.6979H30.7719L27.1636 20.3646L27.0636 22.5854L27.7886 22.8521C27.9428 22.9082 28.0814 23.0001 28.193 23.1204C28.3046 23.2407 28.3859 23.3858 28.4303 23.5437C28.4658 23.6871 28.4681 23.8367 28.437 23.9811C28.406 24.1255 28.3424 24.261 28.2511 24.3771C28.1521 24.5044 28.0259 24.6079 27.8817 24.68C27.7375 24.7521 27.579 24.791 27.4178 24.7937H24.5011C24.3399 24.791 24.1814 24.7521 24.0371 24.68C23.8929 24.6079 23.7667 24.5044 23.6678 24.3771C23.5793 24.2596 23.5187 24.1235 23.4906 23.9791C23.4624 23.8348 23.4675 23.6859 23.5053 23.5437C23.5502 23.3866 23.6318 23.2423 23.7434 23.1228C23.8549 23.0033 23.9932 22.9119 24.1469 22.8562L24.8719 22.5896L24.7719 20.3687L21.1678 21.6854H21.1261C21.0252 21.711 20.9218 21.725 20.8178 21.7271C20.6196 21.7305 20.4259 21.6674 20.2678 21.5479C20.154 21.457 20.063 21.3406 20.0023 21.2082C19.9415 21.0758 19.9125 20.931 19.9178 20.7854C19.9231 20.5064 20.0032 20.2339 20.1498 19.9964C20.2964 19.759 20.504 19.5652 20.7511 19.4354L21.9469 18.7687V18.3521C21.9524 18.0824 22.064 17.8258 22.2574 17.6378C22.4508 17.4498 22.7106 17.3457 22.9803 17.3479H23.1553C23.3932 17.3316 23.6316 17.3715 23.8511 17.4646C23.9155 17.4986 23.9733 17.5437 24.0219 17.5979L24.6386 17.2562L24.5011 14.5771C24.4647 14.3226 24.4791 14.0634 24.5435 13.8146C24.6079 13.5657 24.7209 13.332 24.8761 13.1271C25.0176 12.9859 25.1871 12.8759 25.3737 12.8042C25.5603 12.7324 25.7598 12.7005 25.9594 12.7104ZM25.9594 11.0437C25.535 11.0284 25.1121 11.1016 24.7175 11.2587C24.323 11.4158 23.9655 11.6534 23.6678 11.9562C23.3513 12.321 23.1139 12.7474 22.9705 13.2086C22.8271 13.6697 22.7808 14.1555 22.8344 14.6354L22.8803 15.6979C22.2902 15.7143 21.7217 15.9237 21.2619 16.2939C20.8021 16.6642 20.4763 17.1749 20.3344 17.7479L19.9178 17.9771C19.4154 18.2548 18.9962 18.6614 18.7033 19.155C18.4103 19.6486 18.2542 20.2114 18.2511 20.7854C18.2408 21.1841 18.3232 21.5797 18.4916 21.9412C18.6601 22.3027 18.9101 22.6202 19.2219 22.8687C19.6717 23.2193 20.2268 23.4072 20.7969 23.4021C21.0359 23.4003 21.2737 23.3695 21.5053 23.3104C21.576 23.294 21.6455 23.2731 21.7136 23.2479L21.8511 23.1979C21.7642 23.5743 21.7617 23.9653 21.8438 24.3428C21.926 24.7203 22.0907 25.075 22.3261 25.3812C22.5808 25.7168 22.9096 25.9888 23.287 26.176C23.6643 26.3632 24.0799 26.4606 24.5011 26.4604H27.4178C27.8392 26.4608 28.255 26.364 28.6329 26.1775C29.0109 25.9911 29.3408 25.72 29.5969 25.3854C29.8309 25.0784 29.9943 24.7236 30.0757 24.3462C30.1571 23.9689 30.1544 23.5783 30.0678 23.2021L30.1928 23.2479C30.2637 23.2741 30.3361 23.2963 30.4094 23.3146C30.6424 23.3737 30.8816 23.4045 31.1219 23.4062C31.6901 23.411 32.2433 23.2246 32.6928 22.8771C33.0022 22.6317 33.2511 22.3185 33.4202 21.9616C33.5893 21.6047 33.674 21.2136 33.6678 20.8187C33.6675 20.2397 33.513 19.6712 33.22 19.1718C32.9271 18.6723 32.5063 18.2599 32.0011 17.9771L31.5844 17.7479C31.4421 17.1759 31.1168 16.666 30.658 16.296C30.1991 15.9259 29.632 15.7159 29.0428 15.6979L29.0844 14.6562C29.134 14.1708 29.0826 13.6803 28.9335 13.2156C28.7843 12.7509 28.5406 12.3222 28.2178 11.9562C27.9248 11.6563 27.5729 11.4204 27.1842 11.2634C26.7955 11.1063 26.3785 11.0315 25.9594 11.0437Z" fill="url(#paint3_linear_6679_20259)"/>
<defs>
<linearGradient id="paint0_linear_6679_20259" x1="8.66683" y1="37.7083" x2="27.2085" y2="12.2916" gradientUnits="userSpaceOnUse">
<stop stop-color="#646B72"/>
<stop offset="1" stop-color="#B3B9BD"/>
</linearGradient>
<linearGradient id="paint1_linear_6679_20259" x1="7.41675" y1="27.9552" x2="22.252" y2="26.25" gradientUnits="userSpaceOnUse">
<stop stop-color="white"/>
<stop offset="1" stop-color="white" stop-opacity="0.56"/>
</linearGradient>
<linearGradient id="paint2_linear_6679_20259" x1="20.3335" y1="8.33325" x2="20.3335" y2="17.9166" gradientUnits="userSpaceOnUse">
<stop stop-color="#FFD36D"/>
<stop offset="1" stop-color="#FFB300"/>
</linearGradient>
<linearGradient id="paint3_linear_6679_20259" x1="26.1669" y1="13.9584" x2="24.2919" y2="26.4584" gradientUnits="userSpaceOnUse">
<stop stop-color="white"/>
<stop offset="1" stop-color="#CED1D3"/>
</linearGradient>
</defs>
</svg>
